<svg width="900" height="600" viewBox="0 0 900 600" fill="none" xmlns="http://www.w3.org/2000/svg">
<g clip-path="url(#clip0_2034_2)">
<path d="M412.018 447.258H500.898C574.964 447.258 604.591 417.631 604.591 343.564V254.684C604.591 180.618 574.964 150.991 500.898 150.991H412.018C337.951 150.991 308.324 180.618 308.324 254.684V343.564C308.324 417.631 337.951 447.258 412.018 447.258Z" fill="#8D2496"/>
<path d="M499.644 331.111C507.071 343.975 508.346 358.773 504.2 371.846C500.678 383.264 493.105 393.138 482.201 399.433C458.617 413.05 428.256 404.527 414.313 380.377C402.682 360.232 406.265 335.51 421.406 320.133C433.553 329.95 449.776 333.69 464.914 329.804C469.03 328.722 473.173 327.139 477.084 324.881C480.995 322.623 484.508 319.948 487.433 316.803C492.131 320.562 496.351 325.407 499.644 331.111Z" stroke="white" stroke-width="16.054" stroke-linecap="round" stroke-linejoin="round"/>
<path d="M505.722 266.28C505.722 272.712 504.49 278.87 502.301 284.481C496.69 298.714 484.511 309.798 469.457 313.904C465.352 314.999 460.972 315.683 456.456 315.683C451.94 315.683 447.561 315.136 443.455 313.904C428.402 309.798 416.223 298.85 410.612 284.481C408.349 278.68 407.188 272.507 407.19 266.28C407.19 239.047 429.223 217.014 456.456 217.014C483.689 217.014 505.722 239.047 505.722 266.28Z" stroke="white" stroke-width="16.054" stroke-linecap="round" stroke-linejoin="round"/>
<path d="M688.902 299.507C688.902 171.512 585.142 67.752 457.148 67.752C329.153 67.752 225.393 171.512 225.393 299.507C225.393 427.501 329.153 531.261 457.148 531.261C585.142 531.261 688.902 427.501 688.902 299.507Z" stroke="#E1E4E5" stroke-width="11.747" stroke-linecap="round" stroke-linejoin="bevel" stroke-dasharray="11.32 28.31"/>
<path d="M221.721 333.064C240.544 333.064 255.803 318.04 255.803 299.507C255.803 280.974 240.544 265.95 221.721 265.95C202.898 265.95 187.639 280.974 187.639 299.507C187.639 318.04 202.898 333.064 221.721 333.064Z" fill="white" stroke="#E1E4E5" stroke-width="11.747"/>
<path d="M423.589 64.082C423.589 82.905 438.613 98.164 457.146 98.164C475.679 98.164 490.703 82.905 490.703 64.082C490.703 45.259 475.679 30 457.146 30C438.613 30 423.589 45.259 423.589 64.082Z" fill="white" stroke="#E1E4E5" stroke-width="11.747"/>
<path d="M692.572 333.064C711.395 333.064 726.654 318.04 726.654 299.507C726.654 280.974 711.395 265.95 692.572 265.95C673.749 265.95 658.49 280.974 658.49 299.507C658.49 318.04 673.749 333.064 692.572 333.064Z" fill="white" stroke="#E1E4E5" stroke-width="11.747"/>
<path d="M423.589 534.932C423.589 553.755 438.613 569.014 457.146 569.014C475.679 569.014 490.703 553.755 490.703 534.932C490.703 516.109 475.679 500.85 457.146 500.85C438.613 500.85 423.589 516.109 423.589 534.932Z" fill="white" stroke="#E1E4E5" stroke-width="11.747"/>
<path d="M185.263 430.552C198.655 438.579 217.869 431.159 217.869 431.159C217.869 431.159 215.357 410.728 201.956 402.711C188.564 394.684 169.358 402.095 169.358 402.095C169.358 402.095 171.871 422.525 185.263 430.552Z" fill="url(#paint0_linear_2034_2)"/>
<path d="M238.141 479.272C228.38 479.272 220.467 487.185 220.467 496.946C220.467 506.707 228.38 514.62 238.141 514.62C247.902 514.62 255.815 506.707 255.815 496.946C255.815 487.185 247.902 479.272 238.141 479.272Z" fill="#8D2496"/>
<path d="M285.476 97.699C281.296 97.699 277.908 101.087 277.908 105.267C277.908 109.447 281.296 112.835 285.476 112.835C289.656 112.835 293.044 109.447 293.044 105.267C293.044 101.087 289.656 97.699 285.476 97.699Z" fill="#8D2496"/>
<path d="M514.853 119.428C510.321 119.428 506.647 123.102 506.647 127.634C506.647 132.166 510.321 135.84 514.853 135.84C519.385 135.84 523.059 132.166 523.059 127.634C523.059 123.102 519.385 119.428 514.853 119.428Z" fill="#8D2496"/>
<path d="M680.548 447.553C676.278 447.553 672.816 444.091 672.816 439.821C672.816 435.551 676.278 432.089 680.548 432.089C684.818 432.089 688.28 435.551 688.28 439.821C688.28 444.091 684.818 447.553 680.548 447.553Z" fill="#8D2496"/>
<path d="M594.544 548.391C589.053 548.391 584.602 543.94 584.602 538.449C584.602 532.958 589.053 528.507 594.544 528.507C600.035 528.507 604.486 532.958 604.486 538.449C604.486 543.94 600.035 548.391 594.544 548.391Z" fill="#E1E4E5"/>
<path d="M318.9 547.923C313.255 547.923 308.679 543.347 308.679 537.702C308.679 532.057 313.255 527.481 318.9 527.481C324.545 527.481 329.121 532.057 329.121 537.702C329.121 543.347 324.545 547.923 318.9 547.923Z" fill="#E1E4E5"/>
<path d="M684.35 515.674C681.379 515.674 678.971 513.266 678.971 510.295C678.971 507.324 681.379 504.916 684.35 504.916C687.321 504.916 689.729 507.324 689.729 510.295C689.729 513.266 687.321 515.674 684.35 515.674Z" fill="#E1E4E5"/>
<path d="M700.353 193.802C693.642 193.802 688.202 188.362 688.202 181.651C688.202 174.94 693.642 169.5 700.353 169.5C707.064 169.5 712.504 174.94 712.504 181.651C712.504 188.362 707.064 193.802 700.353 193.802Z" fill="#E1E4E5"/>
<path d="M204.365 200.553C205.925 206.374 202.471 212.357 196.65 213.916C190.829 215.476 184.847 212.022 183.287 206.201C181.727 200.38 185.181 194.397 191.002 192.838C196.823 191.278 202.806 194.732 204.365 200.553Z" fill="#E1E4E5"/>
<path d="M397.864 137.037C392.541 137.037 388.226 132.722 388.226 127.399C388.226 122.076 392.541 117.761 397.864 117.761C403.187 117.761 407.502 122.076 407.502 127.399C407.502 132.722 403.187 137.037 397.864 137.037Z" fill="#E1E4E5"/>
<path d="M727.063 394.564C720.896 394.564 715.897 390.565 715.897 385.631C715.897 380.697 720.896 376.698 727.063 376.698C733.23 376.698 738.229 380.697 738.229 385.631C738.229 390.565 733.23 394.564 727.063 394.564Z" fill="#E1E4E5"/>
<path d="M613.457 82.6372C614.871 87.9153 611.739 93.3406 606.461 94.7549C601.183 96.1691 595.758 93.0368 594.343 87.7587C592.929 82.4806 596.061 77.0554 601.339 75.6411C606.618 74.2268 612.043 77.3591 613.457 82.6372Z" fill="#E1E4E5"/>
<path d="M282.617 202.324H282.776C283.718 215.669 293.643 215.875 293.643 215.875C293.643 215.875 282.698 216.088 282.698 231.509C282.698 216.088 271.754 215.875 271.754 215.875C271.754 215.875 281.675 215.669 282.617 202.324Z" fill="#E1E4E5"/>
</g>
<defs>
<linearGradient id="paint0_linear_2034_2" x1="237.088" y1="456.389" x2="129.328" y2="356.266" gradientUnits="userSpaceOnUse">
<stop stop-color="white"/>
<stop offset="1" stop-color="#EEEEEE"/>
</linearGradient>
<clipPath id="clip0_2034_2">
<rect width="900" height="600" fill="white"/>
</clipPath>
</defs>
</svg>
